<?xml version="1.0" standalone="no"?>
<!DOCTYPE svg PUBLIC "-//W3C//DTD SVG 20010904//EN"
 "http://www.w3.org/TR/2001/REC-SVG-20010904/DTD/svg10.dtd">
<svg version="1.0" xmlns="http://www.w3.org/2000/svg"
 width="800.000000pt" height="800.000000pt" viewBox="0 0 800.000000 800.000000"
 preserveAspectRatio="xMidYMid meet">
<g transform="translate(0.000000,800.000000) scale(0.100000,-0.100000)"
fill="#000000" stroke="none">
<path d="M3830 7138 c-35 -15 -95 -44 -165 -82 -33 -18 -112 -59 -175 -91 -63
-32 -117 -62 -120 -65 -3 -3 -66 -36 -140 -73 -74 -37 -169 -86 -210 -108
-228 -122 -274 -147 -375 -199 -60 -31 -186 -97 -280 -145 -93 -48 -174 -91
-180 -95 -5 -5 -66 -37 -135 -73 -324 -167 -368 -191 -407 -224 -62 -50 -91
-105 -104 -199 -6 -43 -15 -83 -20 -89 -5 -5 -9 -16 -9 -25 0 -9 -11 -27 -24
-39 -36 -34 -57 -85 -66 -160 -5 -36 -5 -244 -1 -461 7 -369 9 -398 28 -441
23 -52 78 -99 115 -99 14 0 35 -8 46 -19 19 -15 22 -29 22 -88 0 -92 24 -169
65 -210 31 -31 37 -33 103 -33 70 0 135 23 227 80 17 10 50 29 75 41 25 13 83
44 129 71 46 26 85 48 87 48 2 0 181 100 214 120 8 5 35 20 60 33 25 13 88 47
140 77 52 29 120 66 150 82 30 17 80 45 111 64 31 19 59 34 62 34 2 0 53 27
113 61 60 34 118 65 129 70 11 5 34 17 50 28 27 16 149 83 310 171 33 18 74
41 90 50 37 22 107 60 203 111 74 40 132 50 170 30 9 -5 38 -19 64 -31 27 -12
50 -26 54 -31 3 -5 12 -9 20 -9 8 0 20 -5 27 -10 7 -6 77 -44 157 -84 80 -40
206 -104 280 -143 74 -39 204 -105 288 -148 83 -43 152 -82 152 -87 0 -4 -24
-23 -52 -41 -55 -35 -376 -230 -425 -258 -16 -9 -122 -74 -238 -144 -115 -70
-271 -164 -345 -208 -74 -44 -141 -88 -150 -97 -8 -10 -184 -120 -390 -246
-206 -126 -424 -259 -485 -296 -60 -38 -116 -71 -124 -75 -8 -3 -190 -114
-405 -245 -360 -220 -439 -264 -611 -343 -249 -114 -309 -152 -334 -214 -9
-19 -80 -68 -273 -186 -393 -240 -657 -400 -716 -435 -29 -17 -52 -36 -50 -43
4 -13 5 -14 613 -322 759 -385 1126 -570 1320 -670 105 -54 303 -155 440 -225
138 -70 345 -176 460 -235 414 -213 576 -294 593 -297 16 -2 132 51 160 74 6
6 12 7 12 3 0 -4 7 -2 15 5 7 6 110 60 227 119 117 60 289 147 382 194 93 48
173 84 177 81 5 -3 9 -1 9 5 0 6 17 19 38 29 20 10 168 85 327 167 160 81 443
225 630 320 187 95 453 230 590 300 138 70 387 197 555 282 168 85 310 159
317 165 8 7 10 249 5 991 -4 540 -7 1302 -7 1692 0 1270 -3 1495 -20 1495 -11
0 -200 -112 -540 -321 -16 -11 -37 -22 -45 -26 -8 -3 -50 -29 -94 -55 -110
-69 -106 -69 -106 -11 0 96 -72 194 -185 250 -27 14 -77 44 -110 67 -33 23
-188 107 -345 185 -157 79 -405 205 -552 280 -534 273 -1112 563 -1162 582
-44 17 -161 71 -218 100 -24 12 -187 10 -218 -3z m205 -313 c26 -14 278 -142
559 -285 281 -142 639 -324 796 -404 157 -80 426 -216 597 -303 l313 -158 -3
-1668 -2 -1668 -300 -153 c-165 -83 -392 -200 -505 -258 -113 -58 -299 -154
-415 -213 -115 -59 -277 -143 -360 -185 -532 -273 -703 -360 -713 -360 -10 0
-2311 1146 -2321 1156 -2 2 13 11 33 19 37 16 206 119 491 302 77 49 233 149
347 222 l207 132 71 -36 c39 -20 189 -91 333 -159 144 -68 354 -168 467 -221
348 -165 370 -175 380 -175 5 0 307 179 671 397 l662 397 -6 330 c-4 181 -7
580 -7 886 l0 557 -182 93 c-101 51 -237 121 -303 155 -66 34 -214 111 -330
170 -115 59 -276 142 -357 184 l-147 75 -38 -21 c-21 -11 -56 -31 -78 -43 -22
-13 -85 -47 -140 -78 -55 -30 -120 -66 -145 -80 -444 -246 -1108 -612 -1150
-635 -30 -16 -68 -38 -85 -47 -33 -20 -98 -55 -195 -108 -36 -19 -78 -43 -95
-52 -16 -10 -50 -29 -75 -42 -25 -14 -102 -57 -172 -96 -71 -40 -130 -72 -133
-72 -3 0 -4 288 -3 641 l3 641 140 72 c77 40 185 97 240 126 55 29 147 77 205
108 58 30 137 72 175 92 39 21 138 72 220 115 83 43 182 95 220 115 39 21 120
64 180 95 150 78 322 168 430 225 50 26 149 78 220 115 72 38 153 81 180 96
28 16 55 29 61 29 6 0 33 -11 59 -25z"/>
</g>
</svg>
